<svg width="100" height="100" viewBox="0 0 100 100" fill="none" xmlns="http://www.w3.org/2000/svg">
  <!-- Robot Head -->
  <rect x="20" y="10" width="60" height="50" rx="10" fill="#4A5568" stroke="#2D3748" stroke-width="2" />
  
  <!-- Robot Face -->
  <rect x="25" y="15" width="50" height="40" rx="5" fill="#2D3748" stroke="#1A202C" stroke-width="1" />
  
  <!-- Robot Eyes -->
  <circle cx="35" cy="30" r="7" fill="#38B2AC" stroke="#2C7A7B" stroke-width="1" />
  <circle cx="65" cy="30" r="7" fill="#38B2AC" stroke="#2C7A7B" stroke-width="1" />
  
  <!-- Eye Highlights -->
  <circle cx="33" cy="28" r="2" fill="#FFFFFF" />
  <circle cx="63" cy="28" r="2" fill="#FFFFFF" />
  
  <!-- Robot Mouth -->
  <rect x="40" y="45" width="20" height="5" rx="2.5" fill="#E2E8F0" stroke="#CBD5E0" stroke-width="1" />
  
  <!-- Robot Ears -->
  <rect x="15" y="20" width="5" height="20" rx="2" fill="#4A5568" stroke="#2D3748" stroke-width="1" />
  <rect x="80" y="20" width="5" height="20" rx="2" fill="#4A5568" stroke="#2D3748" stroke-width="1" />
  
  <!-- Beard Base -->
  <path d="M25 60 C25 60, 50 100, 75 60" fill="#876447" stroke="#654321" stroke-width="1" />
  
  <!-- Beard Details -->
  <path d="M30 60 C30 60, 50 90, 70 60" fill="#A0845C" stroke="#876447" stroke-width="0.5" />
  <path d="M35 60 C35 60, 50 80, 65 60" fill="#C19A6B" stroke="#A0845C" stroke-width="0.5" />
  
  <!-- Beard Strands -->
  <path d="M35 60 L40 75 L45 60" fill="#876447" />
  <path d="M45 60 L50 80 L55 60" fill="#876447" />
  <path d="M55 60 L60 75 L65 60" fill="#876447" />
  
  <!-- Mustache -->
  <path d="M40 55 C40 55, 35 58, 30 55" fill="#A0845C" stroke="#876447" stroke-width="0.5" />
  <path d="M60 55 C60 55, 65 58, 70 55" fill="#A0845C" stroke="#876447" stroke-width="0.5" />
</svg> 